<?xml version="1.0" encoding="utf-8"?>
<!-- Generator: Adobe Illustrator 26.1.0, SVG Export Plug-In . SVG Version: 6.00 Build 0)  -->
<svg version="1.1" id="Layer_1" xmlns="http://www.w3.org/2000/svg" xmlns:xlink="http://www.w3.org/1999/xlink" x="0px" y="0px"
	 viewBox="0 0 841.9 595.3" style="enable-background:new 0 0 841.9 595.3;" xml:space="preserve">
<style type="text/css">
	.st0{fill:#FFCD34;}
	.st1{fill:none;stroke:#000000;stroke-width:10;stroke-miterlimit:10;}
	.st2{stroke:#000000;stroke-width:10;stroke-miterlimit:10;}
	.st3{fill:none;stroke:#EC008C;stroke-width:10;stroke-miterlimit:10;}
	.st4{display:none;}
	.st5{display:inline;}
	.st6{fill:none;stroke:#000000;stroke-miterlimit:10;}
</style>
<g id="Layer_8">
	<rect y="0" class="st0" width="841.9" height="595.3"/>
</g>
<g id="Layer_2_00000117661141618355374060000015757504681184733614_">
	<path class="st1" d="M122.6,428.2"/>
	<path class="st2" d="M5.2,334.5v159.1h82.1C62.2,469.1,29.7,433.9,5.2,334.5z"/>
	<path class="st2" d="M5.2,242.4c28.6,147,162.6,248.1,292.6,250h8.6V427l-183.5-0.5l0-415.6C21.4,51,5.2,143.9,5.2,143.9V242.4z"/>
	<path class="st3" d="M245.7,501.3"/>
	<path class="st1" d="M193.9,205"/>
	<path class="st1" d="M238.5,203.9"/>
	<path class="st1" d="M193.9,205c-21.2-8.4-35.2-29.6-35.2-54.6c0-32.3,26.2-58.5,58.5-58.5s58.5,26.2,58.5,58.5
		c0,23.9-15.9,44.4-37.2,53.4"/>
	<path class="st2" d="M306.4,424.8l-89.2-274.3c-94.6,277.7-94.6,277.7-94.6,277.7"/>
	<g id="Layer_5">
		<circle class="st1" cx="217.2" cy="150.5" r="94.6"/>
	</g>
	<polygon points="186.7,240 246.4,240.4 217.2,150.5 	"/>
</g>
<g id="Layer_9">
	<polygon class="st0" points="176.2,367.8 253.7,368.3 215.8,251.6 	"/>
</g>
<g id="Layer_1_00000046312628602460026820000011349346893378441398_" class="st4">
	<g class="st5">
		<g>
			<rect y="0" class="st6" width="189.2" height="189.2"/>
			<path class="st6" d="M189.2,0C84.7,0,0,84.7,0,189.2"/>
			<path class="st6" d="M94.6,0C42.3,0,0,42.3,0,94.6"/>
			<path class="st6" d="M0,94.6c0,52.2,42.3,94.6,94.6,94.6s94.6-42.4,94.6-94.6S146.9,0,94.6,0"/>
		</g>
		<g>
			<rect x="189.2" y="0" class="st6" width="116.9" height="116.9"/>
			<path class="st6" d="M306.1,116.9C306.1,52.3,253.8,0,189.2,0"/>
			<circle class="st6" cx="247.7" cy="58.5" r="58.5"/>
		</g>
		<g>
			<rect x="233.9" y="116.9" class="st6" width="72.3" height="72.3"/>
			<path class="st6" d="M233.9,189.2c39.9,0,72.3-32.4,72.3-72.3"/>
			
				<ellipse transform="matrix(0.1602 -0.9871 0.9871 0.1602 75.6756 395.066)" class="st6" cx="270" cy="153.1" rx="36.1" ry="36.1"/>
		</g>
		<g>
			<rect x="189.2" y="144.5" class="st6" width="44.7" height="44.7"/>
			<path class="st6" d="M189.2,144.5c0,24.7,20,44.7,44.7,44.7"/>
			<circle class="st6" cx="211.5" cy="166.9" r="22.3"/>
		</g>
		<g>
			<rect x="189.2" y="116.9" class="st6" width="27.6" height="27.6"/>
			<path class="st6" d="M216.8,116.9c-15.2,0-27.6,12.4-27.6,27.6"/>
			<circle class="st6" cx="203" cy="130.7" r="13.8"/>
		</g>
		<g>
			<rect x="216.8" y="116.9" class="st6" width="17.1" height="17.1"/>
			<path class="st6" d="M233.9,134c0-9.4-7.6-17.1-17.1-17.1"/>
			<circle class="st6" cx="225.3" cy="125.4" r="8.5"/>
		</g>
		<g>
			<rect x="223.3" y="134" class="st6" width="10.6" height="10.6"/>
			<path class="st6" d="M223.3,144.5c5.8,0,10.6-4.7,10.6-10.6"/>
			<circle class="st6" cx="228.6" cy="139.2" r="5.3"/>
		</g>
	</g>
	<g class="st5">
		<rect x="0" y="189.2" class="st6" width="306.1" height="304.4"/>
		<path class="st6" d="M0,189.2c0,168.1,137.1,304.4,306.1,304.4"/>
		<ellipse class="st6" cx="153.1" cy="341.4" rx="153.1" ry="152.2"/>
	</g>
	<g class="st5">
		<rect x="306.1" y="-0.2" class="st6" width="493.9" height="493.9"/>
		<path class="st6" d="M306.1,493.6C578.9,493.6,800,272.5,800-0.2"/>
		<circle class="st6" cx="553.1" cy="246.7" r="246.9"/>
	</g>
</g>
<g id="Layer_6">
	<g>
		<path d="M412.5,155.4l19.4,18.2l-1.9,1.5c-9.8,7.1-21.5,10.8-33.9,10.8c-14.8,0-28.6-5.4-39-15.2c-10.4-9.8-16.2-22.7-16.2-36.5
			c0-11.6,4-22.5,11.6-31.7l1.6-1.8l19.4,18.2l-1,1.3c-2.7,4.1-4.2,8.9-4.2,13.8c0,6.9,2.9,13.4,8.2,18.3s12.2,7.7,19.6,7.7
			c5.3,0,10.4-1.4,14.8-3.9L412.5,155.4z M435.1,97.8c10.4,9.8,16.2,22.7,16.2,36.5c0,11.6-4,22.5-11.6,31.7l-1.6,1.8l-19.4-18.2
			l1-1.4c2.7-4.1,4.2-8.9,4.2-13.8c0-6.9-2.9-13.4-8.2-18.3c-5.3-5-12.2-7.7-19.6-7.7c-5.3,0-10.4,1.3-14.8,3.9l-1.5,0.9L360.4,95
			l1.9-1.5c9.8-7.1,21.5-10.8,33.9-10.8c14.8,0,28.6,5.4,39,15.2L435.1,97.8z"/>
		<path d="M557.1,106c0.6,2.2,1,4.7,1,7.1c0,6.9-2.4,13.4-6.9,18.8c-0.8,0.9-1.6,1.8-2.6,2.7c-6.1,5.7-14.1,8.9-22.8,8.9h-34.2
			l-24.1-22.5V83.2h58.5c8.7,0,16.7,3.2,22.8,8.9c4.2,3.9,7.1,8.9,8.5,14.3L557.1,106z M467.4,132.3l27.3,25.5v27.8h-27.3V132.3z
			 M528,118.5c1.3-1.5,1.9-3.3,1.9-5.3c0-0.8-0.2-1.5-0.3-2.1c-0.3-1.5-1.1-2.9-2.4-4.1c-1.8-1.7-4.2-2.6-6.8-2.6h-25.9v3.4l14.9,14
			h10.8c2.6,0,5-0.9,6.8-2.6c0.3-0.3,0.6-0.6,0.8-0.9C527.8,118.5,528,118.5,528,118.5z"/>
		<path d="M607.4,147.6L574,116.4V83h92.2v25.5h-61.9l14.3,13.4h47.6v25.5L607.4,147.6z M666.2,160.7v25.5h-92.1v-58.4l27.3,25.5
			v7.2L666.2,160.7z"/>
		<path d="M784.1,80v106.2h-25.7l-1.1-1.1l-30-28.1l-17.5-16.4l-27.3-25.5V83h4.3l0.6,0.6l69.4,64.9v-43l0.6-0.6L784.1,80z
			 M682.4,126.7l27.3,25.5v33.8h-27.3V126.7z"/>
	</g>
</g>
<g id="Layer_7">
	<g>
		<path d="M375,278.3l13,23.7l-25.5,46h-26.2L375,278.3z M448.1,348.1h-26.2l-5.4-9.8l-37.2-67.7l13-23.5L448.1,348.1z"/>
		<path d="M491.1,304.3v9.4h-32.5v-9.4H491.1z"/>
		<path d="M527.9,324l21.8,24h-48.1v-99.1H524v74.6h3.4L527.9,324z M564.5,323.5V348H560l-22.4-24.5H564.5z"/>
		<path d="M600,248.9v36.8l-22.4-24.5v-12.3L600,248.9L600,248.9z M577.7,272.4l22.4,24.5V348h-22.4V272.4z"/>
		<path d="M691,248.9v24.5h-55.6v2.9L613,251.8v-2.9L691,248.9L691,248.9z M634.2,286.2h32.1v24.5h-30.8V348h-22.4v-85L634.2,286.2z
			"/>
		<path d="M731.6,311.1l-27.4-30v-32h75.5v24.5h-50.7l11.7,12.8h38.9v24.5L731.6,311.1z M779.7,323.6v24.5h-75.4V292l22.4,24.5v6.9
			L779.7,323.6z"/>
	</g>
</g>
</svg>
