<?xml version="1.0" encoding="utf-8"?>
<!-- Generator: Adobe Illustrator 26.1.0, SVG Export Plug-In . SVG Version: 6.00 Build 0)  -->
<svg version="1.1" id="Layer_1" xmlns="http://www.w3.org/2000/svg" xmlns:xlink="http://www.w3.org/1999/xlink" x="0px" y="0px"
	 viewBox="0 0 841.9 595.3" style="enable-background:new 0 0 841.9 595.3;" xml:space="preserve">
<style type="text/css">
	.st0{display:none;}
	.st1{display:inline;fill:none;}
	.st2{stroke:#999999;stroke-width:10;stroke-miterlimit:10;}
	.st3{fill:#FFCC00;stroke:#FFCC00;stroke-width:10;stroke-miterlimit:10;}
	.st4{fill:#FFCC00;stroke:#EC008C;stroke-width:10;stroke-miterlimit:10;}
	.st5{fill:#FFCC00;stroke:#000000;stroke-width:10;stroke-miterlimit:10;}
	.st6{fill:none;stroke:#FFCC00;stroke-width:10;stroke-miterlimit:10;}
	.st7{fill:none;stroke:#FFCC00;stroke-width:10.8;stroke-miterlimit:10;}
	.st8{fill:#FFCC00;}
	.st9{display:inline;}
	.st10{fill:none;stroke:#000000;stroke-miterlimit:10;}
	.st11{fill:none;stroke:#000000;stroke-width:1;stroke-miterlimit:10.0002;}
</style>
<g id="Layer_8" class="st0">
	<rect y="0" class="st1" width="841.9" height="595.3"/>
</g>
<g id="Layer_10">
	<g id="Layer_2_00000169551590017095875350000015526413513736431267_">
		<path class="st2" d="M141.6,457.8"/>
		<path class="st3" d="M24.2,364.1v159.1h82.1C81.2,498.7,48.7,463.5,24.2,364.1z"/>
		<path class="st3" d="M331,528.1v-71.5l-189.1-0.5l-0.3-407.2C84.1,75.9,21.3,129.2,24.9,223.7c9.5,257.1,233.5,304.8,288.6,304.5
			C331,528.1,331,528.1,331,528.1z"/>
		<path class="st4" d="M264.7,530.9"/>
		<path class="st5" d="M212.9,234.6"/>
		<path class="st5" d="M257.5,233.5"/>
		<path class="st6" d="M212.9,234.6c-21.2-8.4-35.2-29.6-35.2-54.6c0-32.3,26.2-58.5,58.5-58.5s58.5,26.2,58.5,58.5
			c0,23.9-15.9,44.4-37.2,53.4"/>
		<path class="st7" d="M325.4,454.4l-89.2-274.3c-94.6,277.7-94.6,277.7-94.6,277.7"/>
		<g id="Layer_5">
			<circle class="st6" cx="236.2" cy="180.1" r="94.6"/>
		</g>
		<polygon class="st8" points="204,274.7 266.9,274.7 236.2,180.1 		"/>
	</g>
	<g id="Layer_7">
		<g>
			<path class="st8" d="M394,307.9l13,23.7l-25.5,46h-26.2L394,307.9z M467,377.7h-26.2l-5.4-9.8l-37.2-67.7l13-23.5L467,377.7z"/>
			<path class="st8" d="M510.1,333.9v9.4h-32.5v-9.4H510.1z"/>
			<path class="st8" d="M546.9,353.6l21.8,24h-48.1v-99.1H543V353h3.4L546.9,353.6z M583.5,353v24.5H579L556.6,353H583.5z"/>
			<path class="st8" d="M619,278.5v36.8l-22.4-24.5v-12.3H619L619,278.5z M596.6,302l22.4,24.5v51.1h-22.4V302z"/>
			<path class="st8" d="M710,278.5V303h-55.6v2.9L632,281.3v-2.9L710,278.5L710,278.5z M653.2,315.8h32.1v24.5h-30.8v37.2h-22.4v-85
				L653.2,315.8z"/>
			<path class="st8" d="M750.6,340.6l-27.4-30v-32h75.5v24.5H748l11.7,12.8h38.9v24.5L750.6,340.6z M798.7,353.2v24.5h-75.4v-56.1
				l22.4,24.5v6.9L798.7,353.2z"/>
		</g>
	</g>
	<g id="Layer_6">
		<g>
			<path class="st8" d="M431.4,185l19.4,18.2l-1.9,1.5c-9.8,7.1-21.5,10.8-33.9,10.8c-14.8,0-28.6-5.4-39-15.2s-16.2-22.7-16.2-36.5
				c0-11.6,4-22.5,11.6-31.7l1.6-1.8l19.4,18.2l-1,1.3c-2.7,4.1-4.2,8.9-4.2,13.8c0,6.9,2.9,13.4,8.2,18.3s12.2,7.7,19.6,7.7
				c5.3,0,10.4-1.4,14.8-3.9L431.4,185z M454.1,127.3c10.4,9.8,16.2,22.7,16.2,36.5c0,11.6-4,22.5-11.6,31.7l-1.6,1.8l-19.4-18.2
				l1-1.4c2.7-4.1,4.2-8.9,4.2-13.8c0-6.9-2.9-13.4-8.2-18.3c-5.3-5-12.2-7.7-19.6-7.7c-5.3,0-10.4,1.4-14.8,3.9l-1.5,0.9
				l-19.4-18.2l1.9-1.5c9.8-7.1,21.5-10.8,33.9-10.8c14.8,0,28.6,5.4,39,15.2L454.1,127.3z"/>
			<path class="st8" d="M576.1,135.6c0.6,2.2,1,4.7,1,7.1c0,6.9-2.4,13.4-6.9,18.8c-0.8,0.9-1.6,1.8-2.6,2.7
				c-6.1,5.7-14.1,8.9-22.8,8.9h-34.2l-24.1-22.5v-37.7H545c8.7,0,16.7,3.2,22.8,8.9c4.2,3.9,7.1,8.9,8.5,14.3L576.1,135.6z
				 M486.4,161.9l27.3,25.5v27.8h-27.3L486.4,161.9L486.4,161.9z M547,148.1c1.3-1.5,1.9-3.3,1.9-5.3c0-0.8-0.2-1.5-0.3-2.1
				c-0.3-1.5-1.1-2.9-2.4-4.1c-1.8-1.7-4.2-2.6-6.8-2.6h-25.9v3.4l14.9,14h10.8c2.6,0,5-0.9,6.8-2.6c0.3-0.3,0.6-0.6,0.8-0.9
				C546.8,148.1,547,148.1,547,148.1z"/>
			<path class="st8" d="M626.4,177.2L592.9,146v-33.4h92.2v25.5h-61.9l14.3,13.4h47.6V177L626.4,177.2z M685.2,190.3v25.5h-92.1
				v-58.4l27.3,25.5v7.2L685.2,190.3z"/>
			<path class="st8" d="M803.1,109.6v106.2h-25.7l-1.1-1.1l-30-28.1l-17.5-16.4l-27.3-25.5v-32.2h4.3l0.6,0.6l69.4,64.9v-43l0.6-0.6
				L803.1,109.6z M701.4,156.3l27.3,25.5v33.8h-27.3V156.3z"/>
		</g>
	</g>
</g>
<g id="Layer_1_00000016795768069062945930000005264858122172294286_" class="st0">
	<g class="st9">
		<g>
			<rect x="24.9" y="34.5" class="st10" width="189.2" height="189.2"/>
			<path class="st10" d="M214.1,34.5c-104.5,0-189.2,84.7-189.2,189.2"/>
			<path class="st10" d="M119.5,34.5c-52.3,0-94.6,42.3-94.6,94.6"/>
			<path class="st10" d="M24.9,129.1c0,52.2,42.3,94.6,94.6,94.6s94.6-42.4,94.6-94.6s-42.3-94.6-94.6-94.6"/>
		</g>
		<g>
			<rect x="214.1" y="34.5" class="st10" width="116.9" height="116.9"/>
			<path class="st10" d="M331,151.4c0-64.6-52.3-116.9-116.9-116.9"/>
			<circle class="st10" cx="272.6" cy="93" r="58.5"/>
		</g>
		<g>
			<rect x="258.8" y="151.4" class="st10" width="72.3" height="72.3"/>
			<path class="st10" d="M258.8,223.7c39.9,0,72.3-32.4,72.3-72.3"/>
			<ellipse class="st11" cx="294.9" cy="187.6" rx="36.1" ry="36.1"/>
		</g>
		<g>
			<rect x="214.1" y="179" class="st10" width="44.7" height="44.7"/>
			<path class="st10" d="M214.1,179c0,24.7,20,44.7,44.7,44.7"/>
			<circle class="st10" cx="236.4" cy="201.4" r="22.3"/>
		</g>
		<g>
			<rect x="214.1" y="151.4" class="st10" width="27.6" height="27.6"/>
			<path class="st10" d="M241.7,151.4c-15.2,0-27.6,12.4-27.6,27.6"/>
			<circle class="st10" cx="227.9" cy="165.2" r="13.8"/>
		</g>
		<g>
			<rect x="241.7" y="151.4" class="st10" width="17.1" height="17.1"/>
			<path class="st10" d="M258.8,168.5c0-9.4-7.6-17.1-17.1-17.1"/>
			<circle class="st10" cx="250.2" cy="159.9" r="8.5"/>
		</g>
		<g>
			<rect x="248.2" y="168.5" class="st10" width="10.6" height="10.6"/>
			<path class="st10" d="M248.2,179c5.8,0,10.6-4.7,10.6-10.6"/>
			<circle class="st10" cx="253.5" cy="173.7" r="5.3"/>
		</g>
	</g>
	<g class="st9">
		<rect x="24.9" y="223.7" class="st10" width="306.1" height="304.4"/>
		<path class="st10" d="M24.9,223.7C24.9,391.8,162,528.1,331,528.1"/>
		<ellipse class="st10" cx="178" cy="375.9" rx="153.1" ry="152.2"/>
	</g>
	<g class="st9">
		<rect x="331" y="34.3" class="st10" width="493.9" height="493.9"/>
		<path class="st10" d="M331,528.1c272.8,0,493.9-221.1,493.9-493.8"/>
		<circle class="st10" cx="578" cy="281.2" r="246.9"/>
	</g>
</g>
</svg>
