<?xml version="1.0" encoding="utf-8"?>
<!-- Generator: Adobe Illustrator 26.1.0, SVG Export Plug-In . SVG Version: 6.00 Build 0)  -->
<svg version="1.1" xmlns="http://www.w3.org/2000/svg" xmlns:xlink="http://www.w3.org/1999/xlink" x="0px" y="0px"
	 viewBox="0 0 841.89 595.28" style="enable-background:new 0 0 841.89 595.28;" xml:space="preserve">
<style type="text/css">
	.st0{display:none;}
	.st1{display:inline;stroke:#000000;stroke-miterlimit:10;}
	.st2{display:inline;}
	.st3{fill:none;stroke:#000000;stroke-miterlimit:10;}
	.st4{fill:none;stroke:#999999;stroke-width:10;stroke-miterlimit:10;}
	.st5{fill:#FFCD34;stroke:#FFCD34;stroke-width:10;stroke-miterlimit:10;}
	.st6{fill:none;stroke:#EC008C;stroke-width:10;stroke-miterlimit:10;}
	.st7{fill:none;stroke:#000000;stroke-width:10;stroke-miterlimit:10;}
	.st8{fill:none;stroke:#FFCD34;stroke-width:10;stroke-miterlimit:10;}
	.st9{fill:#FFCD34;}
	.st10{fill:#FFFFFF;}
</style>
<g id="Layer_8" class="st0">
	<rect class="st1" width="841.89" height="595.28"/>
</g>
<g id="Layer_1" class="st0">
	<g class="st2">
		<g>
			<rect x="0" y="-0.01" class="st3" width="189.2" height="189.2"/>
			<path class="st3" d="M189.2-0.01C84.71-0.01,0,84.7,0,189.19"/>
			<path class="st3" d="M94.6-0.01C42.35-0.01,0,42.34,0,94.59"/>
			<path class="st3" d="M0,94.59c0,52.25,42.35,94.6,94.6,94.6s94.6-42.35,94.6-94.6s-42.35-94.6-94.6-94.6"/>
		</g>
		<g>
			
				<rect x="189.2" y="-0.01" transform="matrix(-1.836970e-16 1 -1 -1.836970e-16 306.1298 -189.2167)" class="st3" width="116.94" height="116.94"/>
			<path class="st3" d="M306.14,116.93c0-64.58-52.35-116.94-116.94-116.94"/>
			<circle class="st3" cx="247.67" cy="58.46" r="58.47"/>
		</g>
		<g>
			
				<rect x="233.87" y="116.92" transform="matrix(-1 -3.267949e-07 3.267949e-07 -1 540.011 306.1122)" class="st3" width="72.27" height="72.27"/>
			<path class="st3" d="M233.87,189.19c39.92,0,72.27-32.36,72.27-72.27"/>
			<circle class="st3" cx="270.01" cy="153.06" r="36.14"/>
		</g>
		<g>
			
				<rect x="189.2" y="144.52" transform="matrix(-1.961533e-08 -1 1 -1.961533e-08 44.6801 378.3971)" class="st3" width="44.67" height="44.67"/>
			<path class="st3" d="M189.2,144.52c0,24.67,20,44.67,44.67,44.67"/>
			<circle class="st3" cx="211.54" cy="166.86" r="22.33"/>
		</g>
		<g>
			<rect x="189.2" y="116.92" class="st3" width="27.61" height="27.61"/>
			<path class="st3" d="M216.81,116.92c-15.25,0-27.61,12.36-27.61,27.61"/>
			<circle class="st3" cx="203.01" cy="130.72" r="13.8"/>
		</g>
		<g>
			
				<rect x="216.81" y="116.92" transform="matrix(-3.267951e-07 1 -1 -3.267951e-07 350.7923 -99.8905)" class="st3" width="17.06" height="17.06"/>
			<path class="st3" d="M233.87,133.98c0-9.42-7.64-17.06-17.06-17.06"/>
			<circle class="st3" cx="225.34" cy="125.45" r="8.53"/>
		</g>
		<g>
			
				<rect x="223.33" y="133.98" transform="matrix(-1 1.961530e-08 -1.961530e-08 -1 457.1998 278.5078)" class="st3" width="10.55" height="10.55"/>
			<path class="st3" d="M223.33,144.53c5.82,0,10.55-4.72,10.55-10.55"/>
			<circle class="st3" cx="228.6" cy="139.25" r="5.27"/>
		</g>
	</g>
	<g class="st2">
		
			<rect x="0.85" y="188.34" transform="matrix(6.123234e-17 -1 1 6.123234e-17 -188.3418 494.4838)" class="st3" width="304.44" height="306.14"/>
		<path class="st3" d="M0,189.19c0,168.14,137.06,304.44,306.14,304.44"/>
		<ellipse class="st3" cx="153.07" cy="341.41" rx="153.07" ry="152.22"/>
	</g>
	<g class="st2">
		
			<rect x="306.14" y="-0.22" transform="matrix(-1 -1.224647e-16 1.224647e-16 -1 1106.1422 493.4086)" class="st3" width="493.86" height="493.86"/>
		<path class="st3" d="M306.14,493.63C578.89,493.63,800,272.53,800-0.22"/>
		<circle class="st3" cx="553.07" cy="246.7" r="246.93"/>
	</g>
</g>
<g id="Layer_10">
	<g id="Layer_2">
		<path class="st4" d="M122.61,428.19"/>
		<path class="st5" d="M5.22,334.54v159.12h82.05C62.24,469.09,29.7,433.94,5.22,334.54z"/>
		<path class="st5" d="M5.22,242.44c28.63,147,162.62,248.1,292.63,249.97l8.62,0l0-65.44l-183.53-0.5l-0.02-415.64
			C21.38,50.99,5.22,143.91,5.22,143.91V242.44z"/>
		<path class="st6" d="M245.72,501.32"/>
		<path class="st7" d="M193.9,205.05"/>
		<path class="st7" d="M238.48,203.91"/>
		<path class="st8" d="M193.9,205.05c-21.23-8.38-35.17-29.63-35.17-54.58c0-32.29,26.18-58.47,58.47-58.47s58.47,26.18,58.47,58.47
			c0,23.88-15.86,44.38-37.18,53.44"/>
		<path class="st5" d="M306.39,424.77l-89.2-274.3c-94.58,277.72-94.58,277.72-94.58,277.72"/>
		<g id="Layer_5">
			<circle class="st8" cx="217.19" cy="150.47" r="94.6"/>
		</g>
		<polygon class="st9" points="186.69,240.04 246.45,240.45 217.19,150.47 		"/>
	</g>
	<g id="Layer_9">
		<polygon class="st10" points="176.24,367.76 253.73,368.29 215.79,251.62 		"/>
	</g>
	<g id="Layer_7">
		<g>
			<path class="st9" d="M375.05,278.3l13.02,23.66l-25.52,46.03h-26.18L375.05,278.3z M448.06,348.14h-26.18l-5.39-9.81
				l-37.23-67.67l13.02-23.52L448.06,348.14z"/>
			<path class="st9" d="M491.08,304.27v9.38h-32.49v-9.38H491.08z"/>
			<path class="st9" d="M527.92,324.04l21.84,23.95h-48.15v-99.12h22.36v74.59h3.42L527.92,324.04z M564.49,323.46v24.53h-4.47
				l-22.36-24.53H564.49z"/>
			<path class="st9" d="M600.01,248.87v36.79l-22.36-24.53v-12.26H600.01z M577.65,272.39l22.36,24.53v51.08h-22.36V272.39z"/>
			<path class="st9" d="M691.05,248.87v24.53H635.4v2.89l-22.36-24.53v-2.89H691.05z M634.22,286.24h32.1v24.53h-30.78v37.22h-22.36
				v-84.98L634.22,286.24z"/>
			<path class="st9" d="M731.57,311.06l-27.36-30.01v-32.03h75.51v24.53h-50.65l11.71,12.84h38.94v24.53L731.57,311.06z
				 M779.71,323.61v24.53h-75.38v-56.13l22.36,24.53v6.93L779.71,323.61z"/>
		</g>
	</g>
	<g id="Layer_6">
		<g>
			<path class="st9" d="M412.46,155.45l19.44,18.18l-1.93,1.5c-9.8,7.06-21.53,10.82-33.91,10.82c-14.78,0-28.6-5.41-39.05-15.17
				c-10.44-9.76-16.23-22.69-16.23-36.51c0-11.57,4.02-22.54,11.57-31.7l1.61-1.8l19.44,18.18l-0.96,1.35
				c-2.73,4.06-4.18,8.86-4.18,13.82c0,6.91,2.89,13.37,8.2,18.33s12.21,7.66,19.6,7.66c5.3,0,10.44-1.35,14.78-3.91L412.46,155.45z
				 M435.12,97.76c10.44,9.76,16.23,22.69,16.23,36.51c0,11.57-4.02,22.54-11.57,31.7l-1.61,1.8l-19.44-18.18l0.96-1.35
				c2.73-4.06,4.18-8.86,4.18-13.82c0-6.91-2.89-13.37-8.2-18.33c-5.3-4.96-12.21-7.66-19.6-7.66c-5.3,0-10.44,1.35-14.78,3.91
				l-1.45,0.9L360.4,95.05l1.93-1.5c9.8-7.06,21.53-10.82,33.9-10.82c14.78,0,28.6,5.41,39.05,15.17L435.12,97.76z"/>
			<path class="st9" d="M557.08,106.02c0.64,2.25,0.96,4.66,0.96,7.06c0,6.91-2.41,13.37-6.91,18.78c-0.8,0.9-1.61,1.8-2.57,2.7
				c-6.11,5.71-14.14,8.86-22.82,8.86h-34.23l-24.1-22.54V83.18h58.49c8.68,0,16.71,3.16,22.82,8.86c4.18,3.91,7.07,8.86,8.52,14.27
				L557.08,106.02z M467.42,132.31l27.32,25.54v27.79h-27.32V132.31z M528,118.49c1.29-1.5,1.93-3.31,1.93-5.26
				c0-0.75-0.16-1.5-0.32-2.1c-0.32-1.5-1.13-2.86-2.41-4.06c-1.77-1.65-4.18-2.55-6.75-2.55h-25.87v3.45l14.94,13.97h10.77
				c2.57,0,4.98-0.9,6.75-2.55c0.32-0.3,0.64-0.6,0.8-0.9H528z"/>
			<path class="st9" d="M607.38,147.63l-33.42-31.25V83.03h92.23v25.54h-61.86l14.3,13.37h47.56v25.54L607.38,147.63z
				 M666.19,160.71v25.54h-92.07V127.8l27.32,25.54v7.21L666.19,160.71z"/>
			<path class="st9" d="M784.13,80.03v106.22h-25.71l-1.12-1.05l-30.05-28.09l-17.51-16.37l-27.32-25.54V83.03h4.34l0.64,0.6
				l69.42,64.9v-42.97l0.64-0.6L784.13,80.03z M682.42,126.75l27.32,25.54v33.8h-27.32V126.75z"/>
		</g>
	</g>
</g>
</svg>
