<?xml version="1.0" encoding="utf-8"?>
<!-- Generator: Adobe Illustrator 26.1.0, SVG Export Plug-In . SVG Version: 6.00 Build 0)  -->
<svg version="1.1" id="Layer_1" xmlns="http://www.w3.org/2000/svg" xmlns:xlink="http://www.w3.org/1999/xlink" x="0px" y="0px"
	 viewBox="0 0 841.9 595.3" style="enable-background:new 0 0 841.9 595.3;" xml:space="preserve">
<style type="text/css">
	.st0{fill:#FFCC00;}
	.st1{fill:none;stroke:#FFCC00;stroke-width:10;stroke-miterlimit:10;}
	.st2{fill:none;stroke:#FFCC00;stroke-width:10.8;stroke-miterlimit:10;}
	.st3{display:none;}
	.st4{display:inline;}
	.st5{fill:none;stroke:#000000;stroke-miterlimit:10;}
	.st6{fill:none;stroke:#000000;stroke-width:1;stroke-miterlimit:10.0002;}
</style>
<g>
	<path d="M83.5,4.3h673.8c44.2,0,80,35.7,80,79.7v428.4c0,43.4-35.3,78.6-78.8,78.6H83.5C40,591,4.7,555.9,4.7,512.4V82.9
		C4.7,39.4,40,4.3,83.5,4.3z"/>
	<path class="st0" d="M26.5,368.6v159.1h82.1C83.5,503.2,51,468,26.5,368.6z"/>
	<path class="st1" d="M26.5,368.6v159.1h82.1C83.5,503.2,51,468,26.5,368.6z"/>
	<path class="st0" d="M333.2,532.6v-71.5l-189.1-0.5l-0.3-407.2C86.4,80.4,23.6,133.6,27.1,228.2C36.6,485.3,260.6,533,315.7,532.7
		C333.2,532.6,333.2,532.6,333.2,532.6z"/>
	<path class="st1" d="M333.2,532.6v-71.5l-189.1-0.5l-0.3-407.2C86.4,80.4,23.6,133.6,27.1,228.2C36.6,485.3,260.6,533,315.7,532.7
		C333.2,532.6,333.2,532.6,333.2,532.6z"/>
	<path class="st1" d="M215.2,239.1c-21.2-8.4-35.2-29.6-35.2-54.6c0-32.3,26.2-58.5,58.5-58.5s58.5,26.2,58.5,58.5
		c0,23.9-15.9,44.4-37.2,53.4"/>
	<path class="st2" d="M327.7,458.9l-89.2-274.3c-94.6,277.7-94.6,277.7-94.6,277.7"/>
	<circle class="st1" cx="238.5" cy="184.6" r="94.6"/>
	<polygon class="st0" points="206.2,279.2 269.2,279.2 238.5,184.6 	"/>
	<path class="st0" d="M396.3,312.4l13,23.7l-25.5,46h-26.2L396.3,312.4z M469.3,382.2h-26.2l-5.4-9.8l-37.2-67.7l13-23.5
		L469.3,382.2z"/>
	<rect x="479.9" y="338.4" class="st0" width="32.5" height="9.4"/>
	<path class="st0" d="M549.2,358.1l21.8,24h-48.1V283h22.4v74.5h3.4L549.2,358.1z M585.8,357.5V382h-4.5l-22.4-24.5H585.8z"/>
	<path class="st0" d="M621.3,283v36.8l-22.4-24.5V283H621.3z M598.9,306.5l22.4,24.5v51.1h-22.4V306.5z"/>
	<path class="st0" d="M712.3,283v24.5h-55.6v2.9l-22.4-24.6v-2.9L712.3,283z M655.5,320.3h32.1v24.5h-30.8V382h-22.4v-85
		L655.5,320.3z"/>
	<path class="st0" d="M752.9,345.1l-27.4-30v-32H801v24.5h-50.7l11.7,12.8h38.9v24.5L752.9,345.1z M801,357.7v24.5h-75.4v-56.1
		l22.4,24.5v6.9L801,357.7z"/>
	<path class="st0" d="M433.7,189.5l19.4,18.2l-1.9,1.5c-9.8,7.1-21.5,10.8-33.9,10.8c-14.8,0-28.6-5.4-39-15.2
		c-10.4-9.8-16.2-22.7-16.2-36.5c0-11.6,4-22.5,11.6-31.7l1.6-1.8l19.4,18.2l-1,1.3c-2.7,4.1-4.2,8.9-4.2,13.8
		c0,6.9,2.9,13.4,8.2,18.3c5.3,4.9,12.2,7.7,19.6,7.7c5.3,0,10.4-1.4,14.8-3.9L433.7,189.5z M456.4,131.8
		c10.4,9.8,16.2,22.7,16.2,36.5c0,11.6-4,22.5-11.6,31.7l-1.6,1.8L440,183.6l1-1.4c2.7-4.1,4.2-8.9,4.2-13.8
		c0-6.9-2.9-13.4-8.2-18.3c-5.3-5-12.2-7.7-19.6-7.7c-5.3,0-10.4,1.4-14.8,3.9l-1.5,0.9L381.7,129l1.9-1.5
		c9.8-7.1,21.5-10.8,33.9-10.8c14.8,0,28.6,5.4,39,15.2L456.4,131.8z"/>
	<path class="st0" d="M578.4,140.1c0.6,2.2,1,4.7,1,7.1c0,6.9-2.4,13.4-6.9,18.8c-0.8,0.9-1.6,1.8-2.6,2.7
		c-6.1,5.7-14.1,8.9-22.8,8.9h-34.2l-24.1-22.5v-37.7h58.5c8.7,0,16.7,3.2,22.8,8.9c4.2,3.9,7.1,8.9,8.5,14.3L578.4,140.1z
		 M488.7,166.4l27.3,25.5v27.8h-27.3L488.7,166.4L488.7,166.4z M549.3,152.6c1.3-1.5,1.9-3.3,1.9-5.3c0-0.8-0.2-1.5-0.3-2.1
		c-0.3-1.5-1.1-2.9-2.4-4.1c-1.8-1.7-4.2-2.6-6.8-2.6h-25.9v3.4l14.9,14h10.8c2.6,0,5-0.9,6.8-2.6c0.3-0.3,0.6-0.6,0.8-0.9
		C549.1,152.6,549.3,152.6,549.3,152.6z"/>
	<path class="st0" d="M628.7,181.7l-33.5-31.2v-33.4h92.2v25.5h-61.9l14.3,13.4h47.6v25.5L628.7,181.7z M687.5,194.8v25.5h-92.1
		v-58.4l27.3,25.5v7.2L687.5,194.8z"/>
	<path class="st0" d="M805.4,114.1v106.2h-25.7l-1.1-1.1l-30-28.1l-17.5-16.4l-27.3-25.5V117h4.3l0.6,0.6l69.4,64.9v-43l0.6-0.6
		L805.4,114.1z M703.7,160.8l27.3,25.5v33.8h-27.3V160.8z"/>
</g>
<g id="Layer_1_00000016795768069062945930000005264858122172294286_" class="st3">
	<g class="st4">
		<g>
			<rect x="24.9" y="34.5" class="st5" width="189.2" height="189.2"/>
			<path class="st5" d="M214.1,34.5c-104.5,0-189.2,84.7-189.2,189.2"/>
			<path class="st5" d="M119.5,34.5c-52.3,0-94.6,42.3-94.6,94.6"/>
			<path class="st5" d="M24.9,129.1c0,52.2,42.3,94.6,94.6,94.6s94.6-42.4,94.6-94.6s-42.3-94.6-94.6-94.6"/>
		</g>
		<g>
			<rect x="214.1" y="34.5" class="st5" width="116.9" height="116.9"/>
			<path class="st5" d="M331,151.4c0-64.6-52.3-116.9-116.9-116.9"/>
			<circle class="st5" cx="272.6" cy="93" r="58.5"/>
		</g>
		<g>
			<rect x="258.8" y="151.4" class="st5" width="72.3" height="72.3"/>
			<path class="st5" d="M258.8,223.7c39.9,0,72.3-32.4,72.3-72.3"/>
			<ellipse class="st6" cx="294.9" cy="187.6" rx="36.1" ry="36.1"/>
		</g>
		<g>
			<rect x="214.1" y="179" class="st5" width="44.7" height="44.7"/>
			<path class="st5" d="M214.1,179c0,24.7,20,44.7,44.7,44.7"/>
			<circle class="st5" cx="236.4" cy="201.4" r="22.3"/>
		</g>
		<g>
			<rect x="214.1" y="151.4" class="st5" width="27.6" height="27.6"/>
			<path class="st5" d="M241.7,151.4c-15.2,0-27.6,12.4-27.6,27.6"/>
			<circle class="st5" cx="227.9" cy="165.2" r="13.8"/>
		</g>
		<g>
			<rect x="241.7" y="151.4" class="st5" width="17.1" height="17.1"/>
			<path class="st5" d="M258.8,168.5c0-9.4-7.6-17.1-17.1-17.1"/>
			<circle class="st5" cx="250.2" cy="159.9" r="8.5"/>
		</g>
		<g>
			<rect x="248.2" y="168.5" class="st5" width="10.6" height="10.6"/>
			<path class="st5" d="M248.2,179c5.8,0,10.6-4.7,10.6-10.6"/>
			<circle class="st5" cx="253.5" cy="173.7" r="5.3"/>
		</g>
	</g>
	<g class="st4">
		<rect x="24.9" y="223.7" class="st5" width="306.1" height="304.4"/>
		<path class="st5" d="M24.9,223.7C24.9,391.8,162,528.1,331,528.1"/>
		<ellipse class="st5" cx="178" cy="375.9" rx="153.1" ry="152.2"/>
	</g>
	<g class="st4">
		<rect x="331" y="34.3" class="st5" width="493.9" height="493.9"/>
		<path class="st5" d="M331,528.1c272.8,0,493.9-221.1,493.9-493.8"/>
		<circle class="st5" cx="578" cy="281.2" r="246.9"/>
	</g>
</g>
</svg>
